<?xml version="1.0" encoding="utf-8"?>
<!-- Generator: Adobe Illustrator 23.0.5, SVG Export Plug-In . SVG Version: 6.00 Build 0)  -->
<svg version="1.1" id="Layer_1" xmlns="http://www.w3.org/2000/svg" xmlns:xlink="http://www.w3.org/1999/xlink" x="0px" y="0px"
	 viewBox="0 0 133 111" enable-background="new 0 0 133 111" xml:space="preserve">
<g>
	<path fill="#F7B70A" d="M19.7,85.5c1.81-1.15,3.1-0.11,4.19,0.69c2.89,2.14,6.08,3.7,9.27,5.26c2.54,1.25,5.06,2,5.62,5.74
		c0.41,2.73,3.39,3.8,6.25,2.81c3.4-1.18,6.6-0.84,10.06,0.01c31.66,7.75,60.69-18.88,55.86-51.11c-0.13-0.84-0.16-1.69-0.23-2.59
		c6.45,2.1,10.89,8.46,10.02,14.82c-2.9,21.26-13.86,36.93-33.75,45.25c-19.78,8.24-38.42,5.13-55.45-7.93
		C26.8,94.8,23.25,90.23,19.7,85.5z"/>
	<path fill="#F7B70A" d="M110.89,24.1c-6.84-3.66-13.98-6.47-21.35-8.7c-1.4-0.43-1.23-1.59-1.53-2.62
		c-0.89-3.06-3.03-4.79-6.11-3.61c-3.75,1.44-7.35,1.01-11.18,0.64c-27.99-2.62-51.2,19.72-49.87,47.8
		c0.04,0.81,0.52,1.66-0.14,2.44c-7-4.04-9.79-10.19-7.99-17.6c7.78-32.02,40.6-50.05,71.57-39.2
		C95.42,7.17,104.36,14.11,110.89,24.1z"/>
	<path fill="#F7B70A" d="M122.07,78.81c1.15-3.47,1.66-6.16,2.88-8.49c4.33-8.33,1.45-15.34-4.08-21.55
		c-10.16-11.4-23.63-16.21-38.35-18.28c-2.13-0.3-2.18,0.67-1.94,2.28c0.25,1.78-0.43,2.9-2.21,1.53
		c-5.04-3.88-9.99-7.89-14.9-11.93c-1.59-1.29-0.91-2.28,0.75-2.89c5.85-2.17,11.7-4.35,17.57-6.53c1.86-0.68,2.93,0.04,2.01,1.83
		c-1.63,3.17,0.68,3.12,2.51,3.58c14.69,3.73,27.72,10.4,37.92,21.86c5.64,6.35,9.17,13.6,8.54,22.4
		C132.24,69.63,128.85,74.69,122.07,78.81z"/>
	<path fill="#F7B70A" d="M13.3,26.79c-1.2,2.37-2.17,4.9-3.66,7.07c-4.68,6.8-4.25,13.54-0.23,20.37
		c4.22,7.17,10.29,12.48,17.34,16.6c5.72,3.34,11.74,6.12,18.22,7.82c2.04,0.54,2.99,0.45,2.88-1.97c-0.13-2.71,1.32-2.68,2.9-1.25
		c4.45,4.04,8.8,8.2,13.19,12.31c1.33,1.25,0.96,2.1-0.65,2.59c-6.21,1.91-12.41,3.85-18.64,5.67c-1.12,0.33-3.02,0.4-1.69-1.7
		c1.81-2.86-0.35-3.26-2.15-4c-10.44-4.24-20.03-9.87-27.85-18.05C5.49,64.46-0.26,55.65,0.19,44.27
		C0.5,35.77,5.01,29.88,13.3,26.79z"/>
	<g>
		<g>
			<path fill="#FFFFFF" d="M42.88,50.73c0.07-0.03,0.14-0.07,0.21-0.1c0.17,0.04,0.33,0.11,0.5,0.13c0.67,0.06,0.81,0.42,0.76,1.05
				c-0.06,0.79-0.14,1.59-0.07,2.38c0,0.08-0.01,0.18-0.01,0.27c-0.04,0.34-0.17,0.52-0.57,0.38c-0.2-0.07-0.43-0.1-0.62-0.14
				c-0.08-0.04-0.16-0.1-0.24-0.14c-0.06-0.03-0.1-0.07-0.16-0.1c0-1.22,0-2.44,0-3.66C42.75,50.77,42.8,50.76,42.88,50.73z"/>
			<path fill="#1E293B" d="M42.92,66.85c-0.01-0.82-0.01-1.66-0.03-2.48c0.06-0.06,0.13-0.13,0.18-0.18c0.74,0.07,1.4,0.41,2.1,0.64
				c3.13,1.05,6.26,2.13,9.39,3.19c0.07,0.08,0.16,0.11,0.27,0.08c0.13,0.01,0.25,0.03,0.38,0.04c0.21,0.11,0.43,0.11,0.65,0
				c0.13-0.03,0.25-0.04,0.38-0.07c0.1,0.04,0.2,0,0.27-0.07c0.08-0.01,0.17-0.03,0.25-0.04c0.11,0.03,0.2,0,0.27-0.09
				c0.3-0.06,0.59-0.13,0.91-0.18c0.38-0.07,0.76-0.14,1.15-0.23c0.74-0.16,1.47-0.34,2.21-0.5c0.35-0.07,0.4-0.35,0.37-0.6
				c-0.04-0.31-0.33-0.11-0.47-0.08c-0.95,0.2-1.91,0.31-2.85,0.61c-0.4,0.07-0.78,0.14-1.18,0.21c-0.06-0.04-0.13-0.09-0.18-0.13
				c0.03-1.57,0.06-3.13-0.01-4.7c0.07-0.14,0.06-0.28-0.01-0.42c0.01-0.33,0.03-0.64,0.04-0.96c0-0.26-0.08-0.44-0.38-0.3
				c-0.81,0.38-1.69,0.64-2.44,1.15c-0.25,0-0.34,0.18-0.43,0.37c-0.33,0.23-0.44,0.57-0.45,0.94c-0.16,0.21-0.08,0.45-0.08,0.69
				c-0.03,1.01-0.03,2.01-0.04,3.03c-2.31-0.72-4.62-1.44-6.93-2.15c-0.54-0.17-0.78-0.5-0.78-1.05c-0.01-0.47-0.04-0.95-0.07-1.42
				c0-0.1,0-0.18,0-0.28c0.03-1.02-0.78-1.53-1.35-2.2c0.01-1.36,0.01-2.72,0.03-4.08c0.03-0.04,0.04-0.09,0.07-0.11
				c0.35-0.03,0.71-0.06,1.06-0.09c0.25,0.01,0.52,0.04,0.78,0.06c0.25,0.14,0.52,0.14,0.79,0.07c0.25,0.01,0.52,0.04,0.78,0.06
				c0.25,0.14,0.52,0.14,0.79,0.07c0.25,0.01,0.52,0.04,0.78,0.06c0.25,0.14,0.52,0.14,0.79,0.07c0.21,0.01,0.41,0.03,0.62,0.04
				c0.4,0.11,0.78,0.2,1.19,0.1c0.17,0.01,0.34,0.03,0.52,0.04c0.34,0.16,0.69,0.14,1.05,0.08c0.17,0.01,0.34,0.03,0.51,0.04
				c0.34,0.16,0.69,0.14,1.05,0.09c0.17,0.01,0.34,0.03,0.51,0.04c0.76,0.2,0.81,0.16,0.96-0.89c0.03-0.08,0.04-0.17,0.07-0.24
				c0.2-0.27,0.25-0.58,0.24-0.92c0.25-0.54,0.38-1.12,0.52-1.7c0.08-0.07,0.11-0.16,0.08-0.27c0.18-0.65,0.38-1.3,0.57-1.96
				c0.08-0.07,0.11-0.16,0.08-0.27c0.21-0.68,0.48-1.36,0.57-2.08c0.27-0.48,0.43-1.02,0.48-1.57c0.01-0.28-0.14-0.27-0.34-0.21
				c-0.08,0-0.18-0.01-0.27-0.01c-0.35-0.03-0.69,0.01-1.05,0.1c-0.96-0.01-1.91,0.07-2.86,0.3c-1.18,0.03-2.35,0.13-3.53,0.27
				c-0.13,0.01-0.27,0.03-0.4,0.04c-0.67,0.06-1.33,0.11-2,0.16c-0.28,0.03-0.58,0.07-0.61-0.35c0.07-0.07,0.13-0.14,0.2-0.21
				c0.86-0.65,1.63-1.4,2.39-2.17c0.18-0.08,0.34-0.21,0.41-0.41c0.47-0.41,0.98-0.78,1.42-1.22c0.64-0.64,1.37-1.01,2.27-1.13
				c1.26-0.2,2.51-0.47,3.75-0.71c0.08-0.01,0.17-0.03,0.25-0.04c2.54-0.37,5.04-0.82,7.55-1.33c0.14,0.03,0.28,0.04,0.41-0.06
				c0.34-0.06,0.68-0.11,1.03-0.18c0.18,0.01,0.35,0.03,0.54,0.03c0.3,0.24,0.24,0.58,0.21,0.91c-0.11,0.91-0.18,1.81-0.34,2.71
				c-0.14,0.85-0.1,1.63,0.54,2.28c0.35,0.37,0.25,0.85,0.34,1.29c-0.06,0.1-0.06,0.18,0.01,0.28c-0.06,2.52-0.07,5.04,0,7.57
				c-0.08,0.08-0.08,0.17-0.01,0.27c-0.06,2.48-0.06,4.96,0,7.42c-0.07,0.14-0.16,0.28-0.23,0.41c-0.27-0.03-0.52-0.03-0.78,0.08
				c-0.1-0.06-0.18-0.04-0.27,0.04c-0.47,0.01-0.92,0.11-1.32,0.42c0.3,0.34,0.84,0.17,1.09,0.61c-0.33,0.21-0.76,0.24-0.99,0.58
				c-0.16,0.07-0.31,0.14-0.37,0.31c-1.35,1.56-1.61,3.39-1.26,5.35c-0.01,0.1-0.01,0.2,0.07,0.27c0.11,0.85,0.45,1.6,1.09,2.21
				c0.08,0.21,0.27,0.27,0.47,0.33c0.11,0.18-15.91-4.66-15.71-4.65c0.1,0.1,0.1,0.21,0.04,0.33c-0.11,0.03-0.24,0.06-0.35,0.08
				c-0.13,0.04-0.27,0.07-0.4,0.11c-0.48-0.1-0.99-0.03-1.47-0.14c-1.23-0.31,14.04,3.9,13.54,2.73c-0.18-0.44-0.4-0.51-0.84-0.4
				c-0.85,0.23-1.73,0.4-2.59,0.58c-0.08,0.01-0.18,0.03-0.27,0.04c-0.84,0.16-1.66,0.3-2.48,0.48c-0.52,0.11-1.02,0.07-1.53-0.13
				c-1.13-0.44-2.27-0.84-3.41-1.26c-0.11-0.04-0.23-0.1-0.35-0.14c-0.3-0.17-0.62-0.27-0.96-0.33c-0.14-0.17-0.31-0.24-0.52-0.25
				c-1.54-0.6-3.1-1.19-4.65-1.78c-0.43-0.16-0.86-0.27-1.22-0.57C43.14,67.08,43.06,66.94,42.92,66.85z M61.84,54.46
				c-0.04,0.38-0.07,0.77-0.11,1.15c-0.04,0.38,0.13,0.38,0.45,0.35c0.99-0.07,1.46-0.79,1.97-1.49c0.13-0.04,0.18-0.14,0.21-0.27
				c0.3-0.3,0.58-0.58,0.88-0.88c0.11,0.04,0.2,0.01,0.27-0.07c0.13-0.03,0.25-0.04,0.38-0.07c0.31-0.03,0.64-0.01,0.92-0.2
				c0.34,0,0.61-0.06,0.61-0.48c-0.01-1.96,0.06-3.91-0.04-5.86c0.08-0.34,0.18-0.67-0.38-0.62c-1.66,0.13-3.33,0.26-4.99,0.38
				c-0.16,0.01-0.37-0.03-0.41,0.21c-0.31,0.98-0.45,2-0.64,3c-0.07,0.09-0.11,0.17-0.06,0.27c-0.1,0.47-0.2,0.94-0.3,1.4
				c0.2,0.51,0.59,0.1,0.88,0.18c0.4,0.21,0.48,0.55,0.44,0.98c-0.04,0.48-0.04,0.98-0.07,1.47C61.77,54.1,61.77,54.27,61.84,54.46z
				"/>
			<path fill="#F7B70A" d="M81.69,48.07c0.08-0.01,0.18-0.04,0.27-0.06c0.08,0.03,0.17,0.06,0.23,0.1c0.21,0.2,0.4,0.35,0.72,0.18
				c0.33-0.17,0.33-0.41,0.31-0.69c-0.01-0.33-0.03-0.64-0.04-0.96c0-0.1,0-0.2,0-0.28c0.01-0.99,0.04-1.98,0.03-2.99
				c0-0.47,0.14-0.55,0.58-0.41c1.01,0.34,2.03,0.62,3.03,0.93c1.19,0.37,1.22,0.42,1.22,1.69c0,0.26,0.01,0.52,0.01,0.78
				c0,0.08,0,0.17,0,0.25c0,2.52,0,5.04,0,7.57c0,0.09,0,0.17,0,0.26c0,0.62,0,1.26-0.01,1.88c-0.03,1.25,0.16,1.1-1.02,1.36
				c-0.1-0.06-0.18-0.04-0.25,0.06c-0.18-0.03-0.37-0.01-0.54,0.07c-0.1-0.06-0.18-0.04-0.25,0.06c-0.23-0.01-0.45-0.01-0.67,0.09
				c-0.1-0.07-0.18-0.04-0.24,0.06c-0.18-0.03-0.37-0.01-0.54,0.07c-0.1-0.06-0.18-0.04-0.25,0.06c-0.5-0.03-0.96,0.11-1.44,0.21
				c-0.1-0.06-0.18-0.04-0.25,0.06c-0.18-0.01-0.38-0.04-0.54,0.1c-1.78,0.11-3.54,0.5-5.31,0.75c-1.1,0.16-2.21,0.27-3.29,0.58
				c-0.17,0.01-0.35,0.04-0.52,0.06c-0.14-0.06-0.27-0.06-0.38,0.07c-0.81-0.09-0.94-0.21-0.95-0.99c-0.01-1.49-0.03-2.99-0.04-4.48
				c0-0.1,0-0.2-0.01-0.3c0.07-2.51,0.07-5.02,0-7.52c0-0.1,0-0.2,0-0.3c0.01-0.17,0.04-0.34,0.04-0.52c0-1.59-0.01-3.17,0.01-4.75
				c0.01-0.99,0.67-1.47,1.64-1.26c0.18,0.04,0.38,0.06,0.58,0.08c0.13,0.03,0.25,0.07,0.38,0.1c1.64,0.64,3.34,1.06,5.01,1.57
				c0.45,0.14,0.61,0.35,0.59,0.84c-0.03,1.32,0,2.65,0.01,3.97c0,0.09,0,0.17,0,0.27c-0.01,0.24-0.01,0.47-0.03,0.71
				c-0.03,0.33,0.21,0.68,0.41,0.64C80.76,47.88,81.21,48.15,81.69,48.07z"/>
			<path fill="#1E293B" d="M82.26,67.46c-0.18-0.13-0.37-0.24-0.57-0.37c-0.34-0.55-0.62-1.15-0.65-1.81
				c-0.01-0.43-0.2-0.38-0.5-0.28c-2.1,0.67-4.19,1.33-6.29,2c-0.11-0.01-0.2,0.03-0.27,0.11c-0.13,0.03-0.25,0.04-0.38,0.07
				c-1.4,0.38-2-0.07-2.01-1.5c-0.01-1.12-0.03-2.25-0.03-3.37c0-0.14,0-0.28,0-0.42c0.04-0.3,0.18-0.54,0.45-0.68
				c0.08-0.03,0.17-0.06,0.25-0.09c0.08-0.01,0.17-0.03,0.27-0.03c0.18,0.04,0.35,0.01,0.52-0.1c0.08-0.01,0.17-0.01,0.27-0.03
				c0.84-0.11,1.67-0.21,2.51-0.35c2.07-0.35,4.18-0.58,6.23-1.05c0.14,0.04,0.27,0.03,0.4-0.04c0.18,0.04,0.35,0.01,0.51-0.09
				c0.08-0.01,0.18-0.03,0.27-0.04c0.18,0.04,0.35,0.01,0.52-0.08c0.08-0.01,0.17-0.03,0.27-0.04c0.18,0.04,0.35,0.01,0.52-0.09
				c0.14,0.03,0.27,0.01,0.4-0.06c0.18,0.04,0.35,0.01,0.51-0.09c0.08-0.01,0.18-0.03,0.27-0.04c0.18,0.04,0.35,0.01,0.52-0.09
				c0.08-0.01,0.17-0.03,0.27-0.04c0.18,0.04,0.35,0.01,0.52-0.09c0.14,0.03,0.27,0.01,0.4-0.06c0.17,0.01,0.35,0.03,0.52,0.04
				c0.11,0.21,0.1,0.45,0.1,0.69c0.01,0.82,0.01,1.63,0.03,2.45c-0.01,0.13-0.01,0.26-0.03,0.38c-0.08,0.13-0.16,0.27-0.24,0.4
				c-0.11,0.06-0.23,0.13-0.35,0.18c-0.14,0.04-0.28,0.08-0.43,0.13c-0.24,0.01-0.47,0.06-0.67,0.21c-0.2,0.03-0.28-0.08-0.33-0.26
				c0.06-0.14,0.04-0.28-0.07-0.4c-0.01-0.09-0.03-0.17-0.03-0.26c-0.04-0.45-0.2-0.88-0.45-1.26c-0.5-0.75-1.23-0.81-1.83-0.16
				c-0.43,0.47-0.67,1.03-0.75,1.67c-0.03,0.13-0.04,0.26-0.07,0.38c-0.17,0.3-0.14,0.61-0.08,0.92c0,0.09,0,0.16,0,0.24
				c-0.06,0.31-0.07,0.62,0.08,0.92c0.01,0.13,0.03,0.26,0.04,0.38c-0.06,0.16-0.01,0.28,0.1,0.4c0.06,0.17,0.1,0.34,0.16,0.51
				c-0.01,0.18,0.06,0.33,0.21,0.43c0.11,0.31,0.33,0.52,0.62,0.65c0.01,0.07,0.03,0.16,0.03,0.23
				C83.43,67.67,82.84,67.67,82.26,67.46z"/>
			<path fill="#1E293B" d="M67.91,69.74c0.52-1.53,0.48-3-0.41-4.45c0.62-0.21,0.96,0.14,1.23,0.61c0.55,0.99,0.52,2.08,0.35,3.16
				c-0.03,0.21-0.08,0.43-0.14,0.64c-0.03,0.08-0.06,0.16-0.08,0.24c-0.28,0.37-0.45,0.84-0.91,1.08c-0.21,0.11-0.44,0.18-0.72,0.07
				c0.17-0.41,0.55-0.68,0.61-1.12C67.85,69.9,67.88,69.83,67.91,69.74z"/>
			<path fill="#1E293B" d="M84.33,62.26c0.34-0.59,0.61-0.13,0.89,0.06c0.41,0.89,0.4,1.81,0.1,2.73c-0.1,0.3-0.24,0.57-0.48,0.76
				c-0.16,0.13-0.35,0.21-0.54,0.06c-0.21-0.18,0.01-0.3,0.1-0.42C85.01,64.37,84.98,63.07,84.33,62.26z"/>
		</g>
	</g>
</g>
</svg>
